<svg width="11" height="17" viewBox="0 0 11 17" fill="none" xmlns="http://www.w3.org/2000/svg">
<path d="M10.142 2.125C10.5155 2.125 10.8182 1.76823 10.8182 1.32812V0.796875C10.8182 0.356768 10.5155 0 10.142 0H0.676136C0.302712 0 0 0.356768 0 0.796875V1.32812C0 1.76823 0.302712 2.125 0.676136 2.125C0.676136 5.14532 2.11338 7.69429 4.08054 8.5C2.11338 9.30571 0.676136 11.8547 0.676136 14.875C0.302712 14.875 0 15.2318 0 15.6719V16.2031C0 16.6432 0.302712 17 0.676136 17H10.142C10.5155 17 10.8182 16.6432 10.8182 16.2031V15.6719C10.8182 15.2318 10.5155 14.875 10.142 14.875C10.142 11.8547 8.7048 9.30571 6.73764 8.5C8.7048 7.69429 10.142 5.14532 10.142 2.125ZM5.40909 6.90625C3.78109 6.90625 2.47917 4.69764 2.47917 2.125H8.33901C8.33901 4.71302 7.02872 6.90625 5.40909 6.90625Z" fill="#E05959"/>
</svg>
