<svg width="30" height="30" viewBox="0 0 30 30" fill="none" xmlns="http://www.w3.org/2000/svg">
<path d="M15.2961 2.92999C22.2237 2.92999 27.4682 8.60989 27.4682 15.1082C27.4682 22.6447 21.3212 27.323 15.2717 27.323C13.2715 27.323 11.0517 26.7855 9.27102 25.7351C8.649 25.3564 8.12455 25.0755 7.45374 25.2953L4.99005 26.0282C4.36802 26.2237 3.80699 25.7351 3.98993 25.0755L4.8071 22.3393C4.94126 21.9607 4.91687 21.5576 4.72172 21.24C3.67282 19.3101 3.0752 17.1969 3.0752 15.1448C3.0752 8.71982 8.20992 2.92999 15.2961 2.92999ZM20.8699 13.5935C20.0039 13.5935 19.3087 14.2898 19.3087 15.157C19.3087 16.0121 20.0039 16.7205 20.8699 16.7205C21.7358 16.7205 22.431 16.0121 22.431 15.157C22.431 14.2898 21.7358 13.5935 20.8699 13.5935ZM15.2473 13.5935C14.3935 13.5813 13.6862 14.2898 13.6862 15.1448C13.6862 16.0121 14.3814 16.7083 15.2473 16.7205C16.1133 16.7205 16.8085 16.0121 16.8085 15.157C16.8085 14.2898 16.1133 13.5935 15.2473 13.5935ZM9.62472 13.5935C8.75876 13.5935 8.06356 14.2898 8.06356 15.157C8.06356 16.0121 8.77096 16.7205 9.62472 16.7205C10.4907 16.7083 11.1859 16.0121 11.1859 15.157C11.1859 14.2898 10.4907 13.5935 9.62472 13.5935Z" fill="#5D7285"/>
</svg>
