<svg width="30" height="31" viewBox="0 0 30 31" fill="none" xmlns="http://www.w3.org/2000/svg">
<path d="M20.3831 3.38678C24.1506 3.38678 26.2484 5.55776 26.2484 9.27769V21.8767C26.2484 25.6576 24.1506 27.7798 20.3831 27.7798H10.1612C6.45346 27.7798 4.29468 25.6576 4.29468 21.8767V9.27769C4.29468 5.55776 6.45346 3.38678 10.1612 3.38678H20.3831ZM10.4905 20.1448C10.1246 20.1082 9.77091 20.2789 9.57576 20.596C9.38062 20.901 9.38062 21.3034 9.57576 21.6205C9.77091 21.9255 10.1246 22.1084 10.4905 22.0596H20.0526C20.5392 22.0108 20.9063 21.5949 20.9063 21.1083C20.9063 20.6082 20.5392 20.1936 20.0526 20.1448H10.4905ZM20.0526 14.5819H10.4905C9.96483 14.5819 9.53917 15.01 9.53917 15.5345C9.53917 16.0589 9.96483 16.4858 10.4905 16.4858H20.0526C20.577 16.4858 21.0039 16.0589 21.0039 15.5345C21.0039 15.01 20.577 14.5819 20.0526 14.5819ZM14.136 9.05815H10.4905V9.07035C9.96483 9.07035 9.53917 9.49723 9.53917 10.0217C9.53917 10.5461 9.96483 10.973 10.4905 10.973H14.136C14.6617 10.973 15.0886 10.5461 15.0886 10.0083C15.0886 9.48503 14.6617 9.05815 14.136 9.05815Z" fill="#5D7285"/>
</svg>
