<svg width="21" height="21" viewBox="0 0 21 21" fill="none" xmlns="http://www.w3.org/2000/svg">
<path d="M18.8006 9.5709V14.6504C18.8006 18.0367 17.9717 18.8833 14.656 18.8833H6.36679C3.05109 18.8833 2.22217 18.0367 2.22217 14.6504V6.18459C2.22217 2.79827 3.05109 1.95169 6.36679 1.95169H7.61017C8.85356 1.95169 9.1271 2.32419 9.59959 2.96759L10.843 4.66074C11.158 5.08403 11.3403 5.33801 12.1693 5.33801H14.656C17.9717 5.33801 18.8006 6.18459 18.8006 9.5709Z" stroke="#5C5967" stroke-miterlimit="10"/>
<path d="M7.60986 1.95169H15.0702C16.728 1.95169 17.5569 2.79827 17.5569 4.49143V5.65971" stroke="#5C5967" stroke-miterlimit="10" stroke-linecap="round" stroke-linejoin="round"/>
<path d="M12.5836 12.9572H8.43896" stroke="#5C5967" stroke-miterlimit="10" stroke-linecap="round" stroke-linejoin="round"/>
</svg>
