<svg width="50" height="45" viewBox="0 0 50 45" fill="none" xmlns="http://www.w3.org/2000/svg">
<path opacity="0.6" d="M29.1667 30C29.1667 33.3187 27.5625 36.3187 25 38.3625C22.7917 40.1625 19.875 41.25 16.6667 41.25C9.77085 41.25 4.16669 36.2062 4.16669 30C4.16669 24.825 8.08335 20.4375 13.375 19.1437C14.8125 22.4062 17.8959 24.9187 21.7084 25.8562C22.75 26.1187 23.8542 26.25 25 26.25C26.1459 26.25 27.25 26.1187 28.2917 25.8562C28.8542 27.1312 29.1667 28.5375 29.1667 30Z" fill="#1E638A"/>
<path d="M37.5 15C37.5 16.4625 37.1875 17.8687 36.625 19.1438C35.1875 22.4062 32.1042 24.9188 28.2917 25.8563C27.25 26.1187 26.1458 26.25 25 26.25C23.8542 26.25 22.75 26.1187 21.7083 25.8563C17.8958 24.9188 14.8125 22.4062 13.375 19.1438C12.8125 17.8687 12.5 16.4625 12.5 15C12.5 8.79375 18.1042 3.75 25 3.75C31.8958 3.75 37.5 8.79375 37.5 15Z" fill="#1E638A"/>
<path opacity="0.4" d="M45.8333 30C45.8333 36.2062 40.2292 41.25 33.3333 41.25C30.125 41.25 27.2083 40.1625 25 38.3625C27.5625 36.3187 29.1667 33.3187 29.1667 30C29.1667 28.5375 28.8542 27.1312 28.2917 25.8562C32.1042 24.9187 35.1875 22.4062 36.625 19.1437C41.9167 20.4375 45.8333 24.825 45.8333 30Z" fill="#1E638A"/>
</svg>
