<svg width="30" height="30" viewBox="0 0 30 30" fill="none" xmlns="http://www.w3.org/2000/svg">
<path d="M20.5574 2.84363C24.6912 2.84363 27.4682 5.74409 27.4682 10.06V20.0203C27.4682 24.3362 24.6912 27.2366 20.5562 27.2366H9.98595C5.85221 27.2366 3.0752 24.3362 3.0752 20.0203V10.06C3.0752 5.74409 5.85221 2.84363 9.98595 2.84363H20.5574ZM21.9024 15.711C20.595 14.8954 19.5857 16.0408 19.3134 16.407C19.0509 16.7607 18.8253 17.1509 18.5873 17.5411C18.006 18.504 17.34 19.6141 16.1872 20.2598C14.5118 21.1875 13.24 20.3328 12.3251 19.711C11.9817 19.4795 11.6481 19.2604 11.3157 19.1144C10.4964 18.7608 9.75934 19.1635 8.66534 20.5531C8.09136 21.2793 7.52229 21.9993 6.94586 22.7167C6.60122 23.146 6.6834 23.808 7.14822 24.095C7.89022 24.5519 8.79535 24.7973 9.81821 24.7973H20.0971C20.6772 24.7973 21.2585 24.718 21.8129 24.5368C23.0614 24.129 24.0524 23.195 24.57 21.9615C25.0066 20.9244 25.2188 19.6657 24.8104 18.6185C24.6742 18.2711 24.4706 17.9477 24.1849 17.6632C23.4355 16.9193 22.7352 16.2245 21.9024 15.711ZM11.0015 7.72223C9.32006 7.72223 7.9538 9.09035 7.9538 10.7714C7.9538 12.4524 9.32006 13.8205 11.0015 13.8205C12.6818 13.8205 14.0493 12.4524 14.0493 10.7714C14.0493 9.09035 12.6818 7.72223 11.0015 7.72223Z" fill="#5D7285"/>
</svg>
