<svg width="30" height="30" viewBox="0 0 30 30" fill="none" xmlns="http://www.w3.org/2000/svg">
<path d="M16.1463 2.47333C17.0686 2.47333 17.9037 2.98558 18.3649 3.74176C18.5893 4.10766 18.7388 4.55893 18.7014 5.03459C18.6765 5.40049 18.7887 5.76638 18.9881 6.10788C19.6238 7.14459 21.0323 7.53487 22.1291 6.94944C23.3631 6.24205 24.9211 6.66892 25.6316 7.87638L26.4667 9.31556C27.1896 10.523 26.7908 12.072 25.5443 12.7672C24.4849 13.3892 24.1109 14.7674 24.7466 15.8163C24.9461 16.1456 25.1704 16.4261 25.5194 16.5969C25.9557 16.8286 26.2922 17.1945 26.529 17.5604C26.9902 18.3166 26.9528 19.2435 26.5041 20.0607L25.6316 21.5243C25.1704 22.3048 24.3104 22.7927 23.4254 22.7927C22.9892 22.7927 22.503 22.6707 22.1042 22.4268C21.7801 22.2195 21.4062 22.1463 21.0073 22.1463C19.7734 22.1463 18.7388 23.1586 18.7014 24.366C18.7014 25.7686 17.5547 26.8663 16.1213 26.8663H14.4262C12.9803 26.8663 11.8336 25.7686 11.8336 24.366C11.8087 23.1586 10.7741 22.1463 9.54017 22.1463C9.12885 22.1463 8.75492 22.2195 8.44331 22.4268C8.04446 22.6707 7.54588 22.7927 7.1221 22.7927C6.22467 22.7927 5.36463 22.3048 4.90345 21.5243L4.04342 20.0607C3.58224 19.2679 3.55731 18.3166 4.01849 17.5604C4.21792 17.1945 4.59185 16.8286 5.01563 16.5969C5.36463 16.4261 5.58899 16.1456 5.80088 15.8163C6.4241 14.7674 6.05017 13.3892 4.9907 12.7672C3.75674 12.072 3.35788 10.523 4.06834 9.31556L4.90345 7.87638C5.62638 6.66892 7.17196 6.24205 8.41839 6.94944C9.50278 7.53487 10.9112 7.14459 11.5469 6.10788C11.7464 5.76638 11.8585 5.40049 11.8336 5.03459C11.8087 4.55893 11.9458 4.10766 12.1826 3.74176C12.6438 2.98558 13.4789 2.49772 14.3888 2.47333H16.1463ZM15.2862 11.2304C13.3293 11.2304 11.7464 12.7672 11.7464 14.682C11.7464 16.5969 13.3293 18.1214 15.2862 18.1214C17.2431 18.1214 18.7887 16.5969 18.7887 14.682C18.7887 12.7672 17.2431 11.2304 15.2862 11.2304Z" fill="#5D7285"/>
</svg>
