<svg width="41" height="35" viewBox="0 0 41 35" fill="none" xmlns="http://www.w3.org/2000/svg">
<path d="M20.5343 4.24377C14.8797 4.24377 10.2843 8.16669 10.2843 12.9938V17.2084C10.2843 18.0979 9.84009 19.4542 9.31051 20.2125L7.34592 22.9979C6.13301 24.7188 6.97009 26.6292 9.19092 27.2709C16.5538 29.3709 24.4976 29.3709 31.8605 27.2709C33.9276 26.6875 34.833 24.6021 33.7055 22.9979L31.7409 20.2125C31.2284 19.4542 30.7843 18.0979 30.7843 17.2084V12.9938C30.7843 8.18127 26.1718 4.24377 20.5343 4.24377Z" stroke="#0A3B83" stroke-width="1.5" stroke-miterlimit="10" stroke-linecap="round"/>
<path d="M23.6944 4.66666C23.1648 4.53541 22.6181 4.43333 22.0544 4.375C20.4144 4.2 18.8427 4.30208 17.3735 4.66666C17.869 3.5875 19.099 2.82916 20.534 2.82916C21.969 2.82916 23.199 3.5875 23.6944 4.66666Z" stroke="#0A3B83" stroke-width="1.5" stroke-miterlimit="10" stroke-linecap="round" stroke-linejoin="round"/>
<path d="M25.6592 27.7958C25.6592 30.2021 23.3529 32.1708 20.5342 32.1708C19.1333 32.1708 17.835 31.675 16.9125 30.8875C15.99 30.1 15.4092 28.9917 15.4092 27.7958" stroke="#0A3B83" stroke-width="1.5" stroke-miterlimit="10"/>
<circle cx="18" cy="4" r="3" fill="#D8727D"/>
</svg>
